<mxfile host="app.diagrams.net" modified="2024-03-07T20:48:47.203Z" agent="Mozilla/5.0 (Windows NT 10.0; Win64; x64) AppleWebKit/537.36 (KHTML, like Gecko) Chrome/121.0.0.0 Safari/537.36" version="24.0.2" etag="-gaftKOD82MSTzc95UdZ" type="github">
  <diagram name="Page-1" id="aAUJQmYrDRXFmXeE8vGf">
    <mxGraphModel>
      <root>
        <mxCell id="0" />
        <mxCell id="1" parent="0" />
      </root>
    </mxGraphModel>
  </diagram>
</mxfile>
